<svg width="32" height="25" viewBox="0 0 32 25" fill="none" xmlns="http://www.w3.org/2000/svg">
<path d="M0.00585938 4.26785L15.9999 12.2638L31.9939 4.26785C31.9347 3.24873 31.488 2.29082 30.7455 1.5903C30.003 0.889778 29.0207 0.49966 27.9999 0.499847H3.99986C2.97903 0.49966 1.99675 0.889778 1.25421 1.5903C0.511676 2.29082 0.0650675 3.24873 0.00585938 4.26785Z" fill="#EEEEEE"/>
<path d="M32 8.73618L16 16.7362L0 8.73618V20.5002C0 21.561 0.421427 22.5785 1.17157 23.3286C1.92172 24.0787 2.93913 24.5002 4 24.5002H28C29.0609 24.5002 30.0783 24.0787 30.8284 23.3286C31.5786 22.5785 32 21.561 32 20.5002V8.73618Z" fill="#EEEEEE"/>
</svg>
